 <svg  version="1.0" xmlns="http://www.w3.org/2000/svg"  width="300.000000pt" height="300.000000pt" viewBox="0 0 300.000000 300.000000"  preserveAspectRatio="xMidYMid meet">  <g transform="translate(0.000000,300.000000) scale(0.100000,-0.100000)" fill="#39c926" stroke="none"> <path d="M2420 2991 c-8 -5 -37 -18 -65 -30 -27 -13 -67 -34 -87 -48 -20 -14 -164 -178 -319 -364 -155 -186 -287 -339 -292 -339 -6 0 -49 38 -97 84 -159 153 -286 187 -457 125 -54 -20 -88 -51 -535 -497 -449 -447 -478 -479 -478 -512 0 -32 29 -63 459 -495 508 -510 505 -506 521 -645 10 -84 41 -159 82 -197 40 -37 128 -73 178 -73 49 0 112 26 167 67 46 35 82 115 92 204 15 136 18 140 385 509 354 356 366 372 388 488 23 126 -22 239 -148 371 -46 49 -84 93 -84 98 0 6 132 120 293 254 435 362 452 380 483 530 12 60 12 78 0 138 -34 165 -120 260 -291 323 -51 19 -167 24 -195 9z m180 -182 c95 -43 143 -116 144 -219 0 -111 -6 -118 -394 -442 -190 -158 -347 -288 -350 -288 -3 0 -54 49 -114 109 l-109 110 76 93 c42 51 172 208 289 348 186 223 220 258 267 283 66 33 127 35 191 6z m-1265 -548 c56 -26 828 -802 850 -853 26 -63 13 -182 -22 -195 -10 -4 -167 146 -524 503 -280 280 -509 515 -509 522 0 39 138 54 205 23z m186 -661 c280 -280 509 -515 509 -522 0 -14 -110 -128 -123 -128 -4 0 -31 24 -60 53 -83 85 -187 106 -295 61 -18 -7 -68 -47 -112 -89 -67 -64 -84 -75 -114 -75 -25 0 -40 7 -55 26 -31 39 -26 69 19 118 52 56 80 119 80 181 0 124 -101 224 -226 225 -66 0 -111 -19 -174 -75 -58 -51 -86 -56 -126 -22 -48 42 -39 77 43 160 92 93 117 142 117 227 0 80 -34 153 -94 201 -22 18 -40 37 -40 43 0 16 112 126 128 126 8 0 243 -229 523 -510z m-707 199 c44 -52 36 -79 -49 -170 -41 -44 -83 -94 -92 -112 -24 -44 -24 -170 -1 -213 31 -57 92 -110 144 -124 96 -27 166 -12 247 54 71 57 74 59 99 45 50 -26 51 -67 2 -121 -52 -58 -74 -112 -74 -184 0 -77 18 -121 72 -173 72 -71 182 -88 275 -44 20 9 71 50 114 90 92 85 121 93 170 44 31 -31 37 -67 18 -104 -6 -12 -62 -74 -125 -138 -135 -137 -166 -193 -187 -338 -12 -81 -18 -98 -41 -118 -68 -59 -156 3 -156 110 0 49 -23 133 -52 192 -13 25 -184 205 -449 470 -236 237 -429 437 -429 446 0 8 92 106 204 217 197 196 204 202 244 202 33 0 45 -6 66 -31z"/> <path d="M2451 2644 c-28 -36 -27 -79 4 -109 50 -51 135 -17 135 54 0 76 -94 112 -139 55z"/> </g> </svg> 